<svg width="19" height="19" viewBox="0 0 19 19" fill="none" xmlns="http://www.w3.org/2000/svg">
<rect width="19" height="19" fill="#E5E5E5"/>
<g id="&#208;&#147;&#208;&#187;&#208;&#176;&#208;&#178;&#208;&#189;&#208;&#176;&#209;&#143; &#209;&#129;&#209;&#130;&#209;&#128;&#208;&#176;&#208;&#189;&#208;&#184;&#209;&#134;&#208;&#176;" clip-path="url(#clip0_0_1)">
<rect width="1280" height="3657.86" transform="translate(-915 -23)" fill="#F2F2F2"/>
<g id="Frame 26" filter="url(#filter0_d_0_1)">
<rect width="1200" height="3657.86" transform="translate(-875 -23)" fill="white"/>
<g id="Group 23">
<g id="Header">
<rect width="1200" height="64" transform="translate(-875 -23)" fill="white"/>
<g id="&#208;&#159;&#208;&#190;&#208;&#187;&#209;&#140;&#208;&#183;&#208;&#190;&#208;&#178;&#208;&#176;&#209;&#130;&#208;&#181;&#208;&#187;&#209;&#140;&#209;&#129;&#208;&#186;&#208;&#190;&#208;&#181; &#208;&#188;&#208;&#181;&#208;&#189;&#209;&#142;">
<g id="Frame 4">
<g id="&#208;&#159;&#208;&#190;&#208;&#184;&#209;&#129;&#208;&#186;">
<g id="icons/search">
<path id="Vector" d="M18.5 17.0083L14.8 13.3287C15.8 12.0359 16.5 10.3453 16.5 8.4558C16.5 4.08011 12.9 0.5 8.5 0.5C4.1 0.5 0.5 4.17956 0.5 8.55525C0.5 12.9309 4.1 16.511 8.5 16.511C10.3 16.511 12 15.9144 13.4 14.8204L17.1 18.5L18.5 17.0083ZM8.5 14.5221C5.2 14.5221 2.5 11.837 2.5 8.55525C2.5 5.27348 5.2 2.5884 8.5 2.5884C11.8 2.5884 14.5 5.27348 14.5 8.55525C14.5 11.837 11.8 14.5221 8.5 14.5221Z" fill="black"/>
</g>
</g>
</g>
</g>
</g>
</g>
</g>
</g>
<defs>
<filter id="filter0_d_0_1" x="-890" y="-38" width="1230" height="3687.86" filterUnits="userSpaceOnUse" color-interpolation-filters="sRGB">
<feFlood flood-opacity="0" result="BackgroundImageFix"/>
<feColorMatrix in="SourceAlpha" type="matrix" values="0 0 0 0 0 0 0 0 0 0 0 0 0 0 0 0 0 0 127 0" result="hardAlpha"/>
<feOffset/>
<feGaussianBlur stdDeviation="7.5"/>
<feColorMatrix type="matrix" values="0 0 0 0 0 0 0 0 0 0 0 0 0 0 0 0 0 0 0.2 0"/>
<feBlend mode="normal" in2="BackgroundImageFix" result="effect1_dropShadow_0_1"/>
<feBlend mode="normal" in="SourceGraphic" in2="effect1_dropShadow_0_1" result="shape"/>
</filter>
<clipPath id="clip0_0_1">
<rect width="1280" height="3657.86" fill="white" transform="translate(-915 -23)"/>
</clipPath>
</defs>
</svg>
